<?xml version="1.0" standalone="no"?><!DOCTYPE svg PUBLIC "-//W3C//DTD SVG 1.1//EN" "http://www.w3.org/Graphics/SVG/1.1/DTD/svg11.dtd"><svg t="1675667510055" class="icon" viewBox="0 0 1024 1024" version="1.1" xmlns="http://www.w3.org/2000/svg" p-id="4003" xmlns:xlink="http://www.w3.org/1999/xlink" width="200" height="200"><path d="M807.936 106.656h-76a24.32 24.32 0 0 0-17.92 7.936 27.744 27.744 0 0 0-7.424 19.104c0 6.944 2.464 13.792 7.424 19.104a24.32 24.32 0 0 0 17.92 7.904h76v81.088c0 6.944 2.432 13.76 7.424 19.104a24.32 24.32 0 0 0 35.808 0 27.744 27.744 0 0 0 7.424-19.104V160.704c0-29.824-22.72-54.048-50.656-54.048zM833.248 512a25.12 25.12 0 0 0-17.92 7.392 25.12 25.12 0 0 0-7.392 17.92v76h-76a25.12 25.12 0 0 0-17.92 7.424c-1.344 1.344-2.08 3.072-3.072 4.704-28.576-27.52-60.704-50.112-96.256-65.152 72.192-43.136 117.888-126.08 103.872-219.296-13.216-87.456-81.056-160.576-167.648-178.656a228.16 228.16 0 0 0-46.944-4.896 217.056 217.056 0 0 0-217.12 217.12c0 79.264 42.976 147.936 106.368 185.824-35.456 15.04-67.648 37.632-96.256 65.152-0.96-1.632-1.696-3.36-3.072-4.704a25.12 25.12 0 0 0-17.92-7.424H200v-76a25.12 25.12 0 0 0-7.424-17.92 25.12 25.12 0 0 0-17.92-7.424 25.12 25.12 0 0 0-17.92 7.424 25.12 25.12 0 0 0-7.392 17.92v76c0 27.936 22.72 50.656 50.656 50.656H262.4c-42.336 54.816-71.712 123.488-80.96 200.192-3.424 28.224 19.104 53.12 47.488 53.12h550.048c28.416 0 50.848-24.96 47.488-53.12-9.216-76.8-38.624-145.472-80.96-200.288h62.4c27.968 0 50.688-22.72 50.688-50.656V537.28a25.12 25.12 0 0 0-7.424-17.92 25.12 25.12 0 0 0-17.92-7.392zM174.72 268.8a24.32 24.32 0 0 0 17.888-7.904 27.744 27.744 0 0 0 7.424-19.104V160.704h76a24.32 24.32 0 0 0 17.92-7.904 27.744 27.744 0 0 0 7.392-19.104 27.744 27.744 0 0 0-7.424-19.104 24.32 24.32 0 0 0-17.92-7.936H200c-27.968 0-50.656 24.224-50.656 54.08v81.056c0 6.944 2.432 13.76 7.392 19.104a24.32 24.32 0 0 0 17.92 7.904z" fill="#72a7ff" p-id="4004"></path></svg>
