<svg xmlns="http://www.w3.org/2000/svg" xmlns:xlink="http://www.w3.org/1999/xlink" width="0" height="0" style="display:none;"><symbol viewBox="0 0 24 24" id="image-line"><path d="M2.9918 21C2.44405 21 2 20.5551 2 20.0066V3.9934C2 3.44476 2.45531 3 2.9918 3H21.0082C21.556 3 22 3.44495 22 3.9934V20.0066C22 20.5552 21.5447 21 21.0082 21H2.9918ZM20 15V5H4V19L14 9L20 15ZM20 17.8284L14 11.8284L6.82843 19H20V17.8284ZM8 11C6.89543 11 6 10.1046 6 9C6 7.89543 6.89543 7 8 7C9.10457 7 10 7.89543 10 9C10 10.1046 9.10457 11 8 11Z"></path></symbol><symbol viewBox="0 0 24 24" id="multi-image-fill"><path d="M6 4C6 3.44772 6.44772 3 7 3H21C21.5523 3 22 3.44772 22 4V16C22 16.5523 21.5523 17 21 17H18V20C18 20.5523 17.5523 21 17 21H3C2.44772 21 2 20.5523 2 20V8C2 7.44772 2.44772 7 3 7H6V4ZM8 7H17C17.5523 7 18 7.44772 18 8V15H20V5H8V7ZM16 15.7394V9H4V18.6321L11.4911 11.6404L16 15.7394ZM7 13.5C7.82843 13.5 8.5 12.8284 8.5 12C8.5 11.1716 7.82843 10.5 7 10.5C6.17157 10.5 5.5 11.1716 5.5 12C5.5 12.8284 6.17157 13.5 7 13.5Z"></path></symbol><symbol viewBox="0 0 24 24" id="video-line"><path d="M3 3.9934C3 3.44476 3.44495 3 3.9934 3H20.0066C20.5552 3 21 3.44495 21 3.9934V20.0066C21 20.5552 20.5551 21 20.0066 21H3.9934C3.44476 21 3 20.5551 3 20.0066V3.9934ZM5 5V19H19V5H5ZM10.6219 8.41459L15.5008 11.6672C15.6846 11.7897 15.7343 12.0381 15.6117 12.2219C15.5824 12.2658 15.5447 12.3035 15.5008 12.3328L10.6219 15.5854C10.4381 15.708 10.1897 15.6583 10.0672 15.4745C10.0234 15.4088 10 15.3316 10 15.2526V8.74741C10 8.52649 10.1791 8.34741 10.4 8.34741C10.479 8.34741 10.5562 8.37078 10.6219 8.41459Z"></path></symbol><symbol viewBox="0 0 24 24" id="gallery-line"><path d="M20 13C18.3221 13 16.7514 13.4592 15.4068 14.2587C16.5908 15.6438 17.5269 17.2471 18.1465 19H20V13ZM16.0037 19C14.0446 14.3021 9.4079 11 4 11V19H16.0037ZM4 9C7.82914 9 11.3232 10.4348 13.9738 12.7961C15.7047 11.6605 17.7752 11 20 11V3H21.0082C21.556 3 22 3.44495 22 3.9934V20.0066C22 20.5552 21.5447 21 21.0082 21H2.9918C2.44405 21 2 20.5551 2 20.0066V3.9934C2 3.44476 2.45531 3 2.9918 3H6V1H8V5H4V9ZM18 1V5H10V3H16V1H18ZM16.5 10C15.6716 10 15 9.32843 15 8.5C15 7.67157 15.6716 7 16.5 7C17.3284 7 18 7.67157 18 8.5C18 9.32843 17.3284 10 16.5 10Z"></path></symbol><symbol viewBox="0 0 24 24" id="side-bar-line"><path d="M3 3H21C21.5523 3 22 3.44772 22 4V20C22 20.5523 21.5523 21 21 21H3C2.44772 21 2 20.5523 2 20V4C2 3.44772 2.44772 3 3 3ZM8 5H4V19H8V5ZM10 5V19H20V5H10Z"></path></symbol><symbol viewBox="0 0 24 24" id="add-line"><path d="M11 11V5H13V11H19V13H13V19H11V13H5V11H11Z"></path></symbol><symbol viewBox="0 0 24 24" id="arrow-up-s-line"><path d="M11.9999 10.8284L7.0502 15.7782L5.63599 14.364L11.9999 8L18.3639 14.364L16.9497 15.7782L11.9999 10.8284Z"></path></symbol><symbol viewBox="0 0 24 24" id="arrow-down-s-line"><path d="M11.9999 13.1714L16.9497 8.22168L18.3639 9.63589L11.9999 15.9999L5.63599 9.63589L7.0502 8.22168L11.9999 13.1714Z"></path></symbol><symbol viewBox="0 0 24 24" id="list-settings-line"><path d="M2 18H9V20H2V18ZM2 11H11V13H2V11ZM2 4H22V6H2V4ZM20.674 13.0251L21.8301 12.634L22.8301 14.366L21.914 15.1711C21.9704 15.4386 22 15.7158 22 16C22 16.2842 21.9704 16.5614 21.914 16.8289L22.8301 17.634L21.8301 19.366L20.674 18.9749C20.2635 19.3441 19.7763 19.6295 19.2391 19.8044L19 21H17L16.7609 19.8044C16.2237 19.6295 15.7365 19.3441 15.326 18.9749L14.1699 19.366L13.1699 17.634L14.086 16.8289C14.0296 16.5614 14 16.2842 14 16C14 15.7158 14.0296 15.4386 14.086 15.1711L13.1699 14.366L14.1699 12.634L15.326 13.0251C15.7365 12.6559 16.2237 12.3705 16.7609 12.1956L17 11H19L19.2391 12.1956C19.7763 12.3705 20.2635 12.6559 20.674 13.0251ZM18 18C19.1046 18 20 17.1046 20 16C20 14.8954 19.1046 14 18 14C16.8954 14 16 14.8954 16 16C16 17.1046 16.8954 18 18 18Z"></path></symbol><symbol viewBox="0 0 24 24" id="search-2-line"><path d="M11 2C15.968 2 20 6.032 20 11C20 15.968 15.968 20 11 20C6.032 20 2 15.968 2 11C2 6.032 6.032 2 11 2ZM11 18C14.8675 18 18 14.8675 18 11C18 7.1325 14.8675 4 11 4C7.1325 4 4 7.1325 4 11C4 14.8675 7.1325 18 11 18ZM19.4853 18.0711L22.3137 20.8995L20.8995 22.3137L18.0711 19.4853L19.4853 18.0711Z"></path></symbol><symbol viewBox="0 0 24 24" id="delete-bin-line"><path d="M17 6H22V8H20V21C20 21.5523 19.5523 22 19 22H5C4.44772 22 4 21.5523 4 21V8H2V6H7V3C7 2.44772 7.44772 2 8 2H16C16.5523 2 17 2.44772 17 3V6ZM18 8H6V20H18V8ZM9 11H11V17H9V11ZM13 11H15V17H13V11ZM9 4V6H15V4H9Z"></path></symbol><symbol viewBox="0 0 24 24" id="upload-cloud-line"><path d="M1 14.5C1 12.1716 2.22429 10.1291 4.06426 8.9812C4.56469 5.044 7.92686 2 12 2C16.0731 2 19.4353 5.044 19.9357 8.9812C21.7757 10.1291 23 12.1716 23 14.5C23 17.9216 20.3562 20.7257 17 20.9811L7 21C3.64378 20.7257 1 17.9216 1 14.5ZM16.8483 18.9868C19.1817 18.8093 21 16.8561 21 14.5C21 12.927 20.1884 11.4962 18.8771 10.6781L18.0714 10.1754L17.9517 9.23338C17.5735 6.25803 15.0288 4 12 4C8.97116 4 6.42647 6.25803 6.0483 9.23338L5.92856 10.1754L5.12288 10.6781C3.81156 11.4962 3 12.927 3 14.5C3 16.8561 4.81833 18.8093 7.1517 18.9868L7.325 19H16.675L16.8483 18.9868ZM13 13V17H11V13H8L12 8L16 13H13Z"></path></symbol><symbol viewBox="0 0 24 24" id="download-2-line"><path d="M13 10H18L12 16L6 10H11V3H13V10ZM4 19H20V12H22V20C22 20.5523 21.5523 21 21 21H3C2.44772 21 2 20.5523 2 20V12H4V19Z"></path></symbol><symbol viewBox="0 0 24 24" id="crop-line"><path d="M15 17V19H6C5.44772 19 5 18.5523 5 18V7H2V5H5V2H7V17H15ZM17 22V7H9V5H18C18.5523 5 19 5.44772 19 6V17H22V19H19V22H17Z"></path></symbol><symbol viewBox="0 0 24 24" id="eye-line"><path d="M12.0003 3C17.3924 3 21.8784 6.87976 22.8189 12C21.8784 17.1202 17.3924 21 12.0003 21C6.60812 21 2.12215 17.1202 1.18164 12C2.12215 6.87976 6.60812 3 12.0003 3ZM12.0003 19C16.2359 19 19.8603 16.052 20.7777 12C19.8603 7.94803 16.2359 5 12.0003 5C7.7646 5 4.14022 7.94803 3.22278 12C4.14022 16.052 7.7646 19 12.0003 19ZM12.0003 16.5C9.51498 16.5 7.50026 14.4853 7.50026 12C7.50026 9.51472 9.51498 7.5 12.0003 7.5C14.4855 7.5 16.5003 9.51472 16.5003 12C16.5003 14.4853 14.4855 16.5 12.0003 16.5ZM12.0003 14.5C13.381 14.5 14.5003 13.3807 14.5003 12C14.5003 10.6193 13.381 9.5 12.0003 9.5C10.6196 9.5 9.50026 10.6193 9.50026 12C9.50026 13.3807 10.6196 14.5 12.0003 14.5Z"></path></symbol></svg>